<?xml version="1.0" ?><svg viewBox="0 0 64 64" xmlns="http://www.w3.org/2000/svg"><g id="Customer_satisfied"><path d="M33.4018,25.9448a15.5009,15.5009,0,0,0-6.5986-5.115,1.564,1.564,0,0,1-.9455-1.4365v0a1.5951,1.5951,0,0,1,.4951-1.1693c.0967-.0921.1892-.1828.2585-.2558A9.777,9.777,0,0,0,27.9,16.2758,9.7238,9.7238,0,0,0,17.7283,1.727a9.5019,9.5019,0,0,0-7.67,7.45A9.7241,9.7241,0,0,0,12.74,18.2034a1.6484,1.6484,0,0,1,.5144,1.1711v.0081a1.5651,1.5651,0,0,1-.9455,1.4516A16.0039,16.0039,0,0,0,3.7048,29.36,20.3622,20.3622,0,0,0,2.008,37.7449v2.0785A3.392,3.392,0,0,0,5.4,43.2155H23.4734a20.06,20.06,0,0,1,9.9284-17.2707Z"/><path d="M56.0564,30.9531a17.514,17.514,0,1,0,0,24.7685A17.5138,17.5138,0,0,0,56.0564,30.9531Zm-19.81,6.6245a1.5,1.5,0,0,1,3,0v1.0859a1.5,1.5,0,0,1-3,0ZM43.8142,53.49a7.5755,7.5755,0,0,1-7.5674-7.5664,1.5,1.5,0,0,1,3,0,4.5669,4.5669,0,0,0,9.1338,0,1.5,1.5,0,0,1,3,0A7.5753,7.5753,0,0,1,43.8142,53.49Zm7.5664-14.8262a1.5,1.5,0,0,1-3,0V37.5776a1.5,1.5,0,0,1,3,0Z"/></g></svg>